<svg xmlns="http://www.w3.org/2000/svg" viewBox="0 0 120 120">
  <defs>
    <linearGradient id="o1" x1="0" y1="0" x2="1" y2="1">
      <stop offset="0%" stop-color="#d9dde3"/>
      <stop offset="100%" stop-color="#b8bfc9"/>
    </linearGradient>
  </defs>
  <path d="M22 88c-8 0-14-6-14-14s6-14 14-14c1 0 3 0 4 1 3-10 12-17 23-17 14 0 26 11 26 25v1c7 1 13 7 13 14 0 8-7 15-15 15H22z"
        fill="url(#o1)" stroke="#aeb6c0" stroke-width="2"/>
  <path d="M52 81c-8 0-14-6-14-14s6-14 14-14c2 0 4 0 6 1 3-10 12-17 23-17 14 0 26 11 26 25v1c7 1 13 7 13 14 0 8-7 15-15 15H52z"
        fill="#c5cbd4" stroke="#aeb6c0" stroke-width="2"/>
</svg>
